<mxfile host="app.diagrams.net" modified="2020-03-31T07:57:26.448Z" agent="5.0 (Windows NT 10.0; Win64; x64) AppleWebKit/537.36 (KHTML, like Gecko) Chrome/80.0.3987.149 Safari/537.36" etag="7lvHrQJNtt-S-CyDgefR" version="12.9.5" type="github" pages="2">
  <diagram id="_iJjl5PsorqTrczbO5OV" name="Page-1">
    <mxGraphModel dx="1422" dy="723" grid="1" gridSize="10" guides="1" tooltips="1" connect="1" arrows="1" fold="1" page="1" pageScale="1" pageWidth="827" pageHeight="1169" math="0" shadow="0">
      <root>
        <mxCell id="0" />
        <mxCell id="1" parent="0" />
        <mxCell id="AfSTEGHenY8hHJTpaZV2-1" value="YENİ GENEL HEDEF DÖNEMİ AÇILIR" style="rounded=0;whiteSpace=wrap;html=1;" parent="1" vertex="1">
          <mxGeometry x="300" width="270" height="60" as="geometry" />
        </mxCell>
        <mxCell id="AfSTEGHenY8hHJTpaZV2-2" value="GENEL HEDEF DÖNEMİ İÇİNDE HEDEF GİRİŞ DÖNEMİ AÇILIR" style="rounded=0;whiteSpace=wrap;html=1;" parent="1" vertex="1">
          <mxGeometry x="300" y="90" width="270" height="60" as="geometry" />
        </mxCell>
        <mxCell id="AfSTEGHenY8hHJTpaZV2-11" style="edgeStyle=orthogonalEdgeStyle;rounded=0;orthogonalLoop=1;jettySize=auto;html=1;entryX=0.5;entryY=0;entryDx=0;entryDy=0;" parent="1" source="AfSTEGHenY8hHJTpaZV2-3" target="AfSTEGHenY8hHJTpaZV2-4" edge="1">
          <mxGeometry relative="1" as="geometry" />
        </mxCell>
        <mxCell id="AfSTEGHenY8hHJTpaZV2-3" value="HEDEF GİRİŞ EKRANINDAN HEDEFLER BELİRLENİR" style="rounded=0;whiteSpace=wrap;html=1;" parent="1" vertex="1">
          <mxGeometry x="300" y="180" width="270" height="60" as="geometry" />
        </mxCell>
        <mxCell id="AfSTEGHenY8hHJTpaZV2-12" style="edgeStyle=orthogonalEdgeStyle;rounded=0;orthogonalLoop=1;jettySize=auto;html=1;" parent="1" source="AfSTEGHenY8hHJTpaZV2-4" edge="1">
          <mxGeometry relative="1" as="geometry">
            <mxPoint x="435" y="360" as="targetPoint" />
          </mxGeometry>
        </mxCell>
        <mxCell id="AfSTEGHenY8hHJTpaZV2-4" value="BELİRLENEN HEDEFLER &lt;br&gt;1. DEĞERLENDİRİCİYE GÖNDERİLİR" style="rounded=0;whiteSpace=wrap;html=1;" parent="1" vertex="1">
          <mxGeometry x="300" y="270" width="270" height="60" as="geometry" />
        </mxCell>
        <mxCell id="AfSTEGHenY8hHJTpaZV2-5" value="" style="endArrow=classic;html=1;exitX=0.5;exitY=1;exitDx=0;exitDy=0;" parent="1" source="AfSTEGHenY8hHJTpaZV2-1" edge="1">
          <mxGeometry width="50" height="50" relative="1" as="geometry">
            <mxPoint x="400" y="380" as="sourcePoint" />
            <mxPoint x="435" y="90" as="targetPoint" />
          </mxGeometry>
        </mxCell>
        <mxCell id="AfSTEGHenY8hHJTpaZV2-8" value="" style="endArrow=classic;html=1;exitX=0.5;exitY=1;exitDx=0;exitDy=0;entryX=0.5;entryY=0;entryDx=0;entryDy=0;" parent="1" source="AfSTEGHenY8hHJTpaZV2-2" target="AfSTEGHenY8hHJTpaZV2-3" edge="1">
          <mxGeometry width="50" height="50" relative="1" as="geometry">
            <mxPoint x="445" y="70" as="sourcePoint" />
            <mxPoint x="445" y="100" as="targetPoint" />
          </mxGeometry>
        </mxCell>
        <mxCell id="AfSTEGHenY8hHJTpaZV2-15" value="Reddedilen &lt;br&gt;hedef var mı?" style="rhombus;whiteSpace=wrap;html=1;" parent="1" vertex="1">
          <mxGeometry x="380" y="360" width="110" height="90" as="geometry" />
        </mxCell>
        <mxCell id="AfSTEGHenY8hHJTpaZV2-20" value="" style="endArrow=none;html=1;exitX=1;exitY=0.5;exitDx=0;exitDy=0;" parent="1" source="AfSTEGHenY8hHJTpaZV2-15" edge="1">
          <mxGeometry width="50" height="50" relative="1" as="geometry">
            <mxPoint x="400" y="380" as="sourcePoint" />
            <mxPoint x="650" y="405" as="targetPoint" />
          </mxGeometry>
        </mxCell>
        <mxCell id="AfSTEGHenY8hHJTpaZV2-21" value="" style="endArrow=none;html=1;" parent="1" edge="1">
          <mxGeometry width="50" height="50" relative="1" as="geometry">
            <mxPoint x="650" y="410" as="sourcePoint" />
            <mxPoint x="650" y="220" as="targetPoint" />
          </mxGeometry>
        </mxCell>
        <mxCell id="AfSTEGHenY8hHJTpaZV2-22" value="" style="endArrow=classic;html=1;entryX=1;entryY=0.65;entryDx=0;entryDy=0;entryPerimeter=0;" parent="1" target="AfSTEGHenY8hHJTpaZV2-3" edge="1">
          <mxGeometry width="50" height="50" relative="1" as="geometry">
            <mxPoint x="650" y="220" as="sourcePoint" />
            <mxPoint x="450" y="330" as="targetPoint" />
          </mxGeometry>
        </mxCell>
        <mxCell id="AfSTEGHenY8hHJTpaZV2-23" value="Hayır" style="text;html=1;strokeColor=none;fillColor=none;align=center;verticalAlign=middle;whiteSpace=wrap;rounded=0;" parent="1" vertex="1">
          <mxGeometry x="384" y="450" width="40" height="20" as="geometry" />
        </mxCell>
        <mxCell id="AfSTEGHenY8hHJTpaZV2-24" value="Evet" style="text;html=1;strokeColor=none;fillColor=none;align=center;verticalAlign=middle;whiteSpace=wrap;rounded=0;" parent="1" vertex="1">
          <mxGeometry x="500" y="380" width="40" height="20" as="geometry" />
        </mxCell>
        <mxCell id="AfSTEGHenY8hHJTpaZV2-25" value="" style="endArrow=classic;html=1;exitX=0.5;exitY=1;exitDx=0;exitDy=0;" parent="1" source="AfSTEGHenY8hHJTpaZV2-15" edge="1">
          <mxGeometry width="50" height="50" relative="1" as="geometry">
            <mxPoint x="400" y="380" as="sourcePoint" />
            <mxPoint x="435" y="490" as="targetPoint" />
          </mxGeometry>
        </mxCell>
        <mxCell id="AfSTEGHenY8hHJTpaZV2-26" value="ONAYLANAN HEDEF LİSTESİ&amp;nbsp;&lt;br&gt;2. DEĞERLENDİRİCİYE GÖNDERİLİR" style="rounded=0;whiteSpace=wrap;html=1;" parent="1" vertex="1">
          <mxGeometry x="300" y="490" width="270" height="60" as="geometry" />
        </mxCell>
        <mxCell id="AfSTEGHenY8hHJTpaZV2-27" value="&lt;br&gt;2. DEĞERLENDİRİCİ &lt;br&gt;HEDEF LİSTESİNİ &lt;br&gt;ONAYLADI MI?" style="rhombus;whiteSpace=wrap;html=1;" parent="1" vertex="1">
          <mxGeometry x="350" y="580" width="170" height="110" as="geometry" />
        </mxCell>
        <mxCell id="AfSTEGHenY8hHJTpaZV2-28" style="edgeStyle=orthogonalEdgeStyle;rounded=0;orthogonalLoop=1;jettySize=auto;html=1;" parent="1" edge="1">
          <mxGeometry relative="1" as="geometry">
            <mxPoint x="434.5" y="580" as="targetPoint" />
            <mxPoint x="434.5" y="550" as="sourcePoint" />
          </mxGeometry>
        </mxCell>
        <mxCell id="AfSTEGHenY8hHJTpaZV2-29" value="" style="endArrow=none;html=1;" parent="1" edge="1">
          <mxGeometry width="50" height="50" relative="1" as="geometry">
            <mxPoint x="650" y="400" as="sourcePoint" />
            <mxPoint x="650" y="220" as="targetPoint" />
          </mxGeometry>
        </mxCell>
        <mxCell id="AfSTEGHenY8hHJTpaZV2-30" value="" style="endArrow=none;html=1;exitX=1;exitY=0.5;exitDx=0;exitDy=0;" parent="1" edge="1">
          <mxGeometry width="50" height="50" relative="1" as="geometry">
            <mxPoint x="350" y="635" as="sourcePoint" />
            <mxPoint x="220" y="634.5" as="targetPoint" />
          </mxGeometry>
        </mxCell>
        <mxCell id="AfSTEGHenY8hHJTpaZV2-31" value="" style="endArrow=none;html=1;" parent="1" edge="1">
          <mxGeometry width="50" height="50" relative="1" as="geometry">
            <mxPoint x="220" y="530.5" as="sourcePoint" />
            <mxPoint x="220" y="640" as="targetPoint" />
          </mxGeometry>
        </mxCell>
        <mxCell id="AfSTEGHenY8hHJTpaZV2-32" value="" style="endArrow=classic;html=1;entryX=1;entryY=0.65;entryDx=0;entryDy=0;entryPerimeter=0;" parent="1" edge="1">
          <mxGeometry width="50" height="50" relative="1" as="geometry">
            <mxPoint x="220" y="530" as="sourcePoint" />
            <mxPoint x="300" y="531" as="targetPoint" />
          </mxGeometry>
        </mxCell>
        <mxCell id="AfSTEGHenY8hHJTpaZV2-33" value="Evet" style="text;html=1;strokeColor=none;fillColor=none;align=center;verticalAlign=middle;whiteSpace=wrap;rounded=0;" parent="1" vertex="1">
          <mxGeometry x="384" y="680" width="40" height="20" as="geometry" />
        </mxCell>
        <mxCell id="AfSTEGHenY8hHJTpaZV2-34" value="Hayır" style="text;html=1;strokeColor=none;fillColor=none;align=center;verticalAlign=middle;whiteSpace=wrap;rounded=0;" parent="1" vertex="1">
          <mxGeometry x="500" y="600" width="40" height="20" as="geometry" />
        </mxCell>
        <mxCell id="AfSTEGHenY8hHJTpaZV2-35" value="GENEL HEDEF DÖNEMİ İÇİNDE &lt;br&gt;HEDEF DEĞERLENDİRME DÖNEMİ AÇILIR" style="rounded=0;whiteSpace=wrap;html=1;" parent="1" vertex="1">
          <mxGeometry x="300" y="720" width="270" height="60" as="geometry" />
        </mxCell>
        <mxCell id="AfSTEGHenY8hHJTpaZV2-37" style="edgeStyle=orthogonalEdgeStyle;rounded=0;orthogonalLoop=1;jettySize=auto;html=1;" parent="1" edge="1">
          <mxGeometry relative="1" as="geometry">
            <mxPoint x="434.5" y="720" as="targetPoint" />
            <mxPoint x="434.5" y="690" as="sourcePoint" />
          </mxGeometry>
        </mxCell>
        <mxCell id="AfSTEGHenY8hHJTpaZV2-43" value="" style="edgeStyle=orthogonalEdgeStyle;rounded=0;orthogonalLoop=1;jettySize=auto;html=1;entryX=0.5;entryY=0;entryDx=0;entryDy=0;" parent="1" source="AfSTEGHenY8hHJTpaZV2-38" edge="1">
          <mxGeometry relative="1" as="geometry">
            <mxPoint x="435" y="880" as="targetPoint" />
          </mxGeometry>
        </mxCell>
        <mxCell id="AfSTEGHenY8hHJTpaZV2-38" value="1. DEĞERLENDİRİCİ ONAYLADIĞI HEDEFLERE PAUN VEREREK DEĞERLENDİRİR VE 2. DEĞERLENDİRİCİYE GÖNDERİR" style="rounded=0;whiteSpace=wrap;html=1;" parent="1" vertex="1">
          <mxGeometry x="300" y="800" width="270" height="60" as="geometry" />
        </mxCell>
        <mxCell id="AfSTEGHenY8hHJTpaZV2-39" style="edgeStyle=orthogonalEdgeStyle;rounded=0;orthogonalLoop=1;jettySize=auto;html=1;" parent="1" edge="1">
          <mxGeometry relative="1" as="geometry">
            <mxPoint x="435" y="800" as="targetPoint" />
            <mxPoint x="434.5" y="780" as="sourcePoint" />
          </mxGeometry>
        </mxCell>
        <mxCell id="AfSTEGHenY8hHJTpaZV2-46" value="" style="endArrow=none;html=1;exitX=0;exitY=0.25;exitDx=0;exitDy=0;" parent="1" source="AfSTEGHenY8hHJTpaZV2-26" edge="1">
          <mxGeometry width="50" height="50" relative="1" as="geometry">
            <mxPoint x="400" y="560" as="sourcePoint" />
            <mxPoint x="220" y="505" as="targetPoint" />
          </mxGeometry>
        </mxCell>
        <mxCell id="AfSTEGHenY8hHJTpaZV2-47" value="" style="endArrow=none;html=1;" parent="1" edge="1">
          <mxGeometry width="50" height="50" relative="1" as="geometry">
            <mxPoint x="220" y="400" as="sourcePoint" />
            <mxPoint x="220" y="510" as="targetPoint" />
          </mxGeometry>
        </mxCell>
        <mxCell id="AfSTEGHenY8hHJTpaZV2-48" value="" style="endArrow=classic;html=1;entryX=0;entryY=0.5;entryDx=0;entryDy=0;" parent="1" target="AfSTEGHenY8hHJTpaZV2-15" edge="1">
          <mxGeometry width="50" height="50" relative="1" as="geometry">
            <mxPoint x="220" y="405" as="sourcePoint" />
            <mxPoint x="450" y="510" as="targetPoint" />
          </mxGeometry>
        </mxCell>
        <mxCell id="AfSTEGHenY8hHJTpaZV2-49" value="2. Değerlendirici Puanları Onayladı mı?" style="rhombus;whiteSpace=wrap;html=1;" parent="1" vertex="1">
          <mxGeometry x="370" y="880" width="130" height="90" as="geometry" />
        </mxCell>
        <mxCell id="AfSTEGHenY8hHJTpaZV2-50" value="" style="endArrow=none;html=1;exitX=1;exitY=0.5;exitDx=0;exitDy=0;" parent="1" source="AfSTEGHenY8hHJTpaZV2-49" edge="1">
          <mxGeometry width="50" height="50" relative="1" as="geometry">
            <mxPoint x="400" y="930" as="sourcePoint" />
            <mxPoint x="640" y="925" as="targetPoint" />
          </mxGeometry>
        </mxCell>
        <mxCell id="AfSTEGHenY8hHJTpaZV2-51" value="Hayır" style="text;html=1;strokeColor=none;fillColor=none;align=center;verticalAlign=middle;whiteSpace=wrap;rounded=0;" parent="1" vertex="1">
          <mxGeometry x="500" y="900" width="40" height="20" as="geometry" />
        </mxCell>
        <mxCell id="AfSTEGHenY8hHJTpaZV2-52" value="Evet" style="text;html=1;strokeColor=none;fillColor=none;align=center;verticalAlign=middle;whiteSpace=wrap;rounded=0;" parent="1" vertex="1">
          <mxGeometry x="380" y="980" width="40" height="20" as="geometry" />
        </mxCell>
        <mxCell id="JLnEb5Qm3w_B1_zRXUKf-8" value="" style="edgeStyle=orthogonalEdgeStyle;rounded=0;orthogonalLoop=1;jettySize=auto;html=1;" parent="1" edge="1">
          <mxGeometry relative="1" as="geometry">
            <mxPoint x="434.5" y="970" as="sourcePoint" />
            <mxPoint x="435" y="1000" as="targetPoint" />
          </mxGeometry>
        </mxCell>
        <mxCell id="JLnEb5Qm3w_B1_zRXUKf-9" value="PERSONEL KARNELERİ HESAPLANIR" style="rounded=0;whiteSpace=wrap;html=1;" parent="1" vertex="1">
          <mxGeometry x="300" y="1000" width="270" height="60" as="geometry" />
        </mxCell>
        <mxCell id="JLnEb5Qm3w_B1_zRXUKf-10" value="" style="endArrow=classic;html=1;entryX=1;entryY=0.65;entryDx=0;entryDy=0;entryPerimeter=0;" parent="1" edge="1">
          <mxGeometry width="50" height="50" relative="1" as="geometry">
            <mxPoint x="640" y="840" as="sourcePoint" />
            <mxPoint x="570" y="840" as="targetPoint" />
          </mxGeometry>
        </mxCell>
        <mxCell id="JLnEb5Qm3w_B1_zRXUKf-11" value="" style="endArrow=none;html=1;" parent="1" edge="1">
          <mxGeometry width="50" height="50" relative="1" as="geometry">
            <mxPoint x="640" y="930" as="sourcePoint" />
            <mxPoint x="640" y="840" as="targetPoint" />
          </mxGeometry>
        </mxCell>
      </root>
    </mxGraphModel>
  </diagram>
  <diagram id="a_Yd1fdkCKvB5X9jHJ1L" name="Page-2">
    <mxGraphModel dx="1422" dy="723" grid="1" gridSize="10" guides="1" tooltips="1" connect="1" arrows="1" fold="1" page="1" pageScale="1" pageWidth="827" pageHeight="1169" math="0" shadow="0">
      <root>
        <mxCell id="kH-1s2y6S0Um7TRBexHK-0" />
        <mxCell id="kH-1s2y6S0Um7TRBexHK-1" parent="kH-1s2y6S0Um7TRBexHK-0" />
      </root>
    </mxGraphModel>
  </diagram>
</mxfile>
